<svg xmlns="http://www.w3.org/2000/svg" width="1280" height="800" viewBox="0 0 1280 800">
  <defs>
    <style>text { font-family: 'Inter', 'Helvetica Neue', sans-serif; }</style>
  </defs>

  <!-- Background -->
  <rect width="1280" height="800" fill="#0a0a0a"/>

  <!-- Sidebar -->
  <rect width="200" height="800" fill="#111318"/>
  <rect x="200" width="1" height="800" fill="#1e2028"/>

  <!-- Logo area -->
  <rect x="16" y="16" width="32" height="32" rx="8" fill="#00d4aa" opacity="0.2"/>
  <rect x="22" y="22" width="20" height="20" rx="4" fill="#00d4aa"/>
  <text x="58" y="28" fill="#f0f0f0" font-size="13" font-weight="700">AttendanceChecker</text>
  <text x="58" y="42" fill="#6b7280" font-size="10">RFID Tracking</text>

  <!-- Nav items -->
  <rect x="16" y="84" width="14" height="12" rx="2" fill="#6b7280"/>
  <text x="38" y="95" fill="#6b7280" font-size="13">Dashboard</text>

  <rect x="16" y="122" width="14" height="14" rx="3" fill="#6b7280"/>
  <text x="38" y="133" fill="#6b7280" font-size="13">Schüler</text>

  <rect x="16" y="160" width="14" height="14" rx="2" fill="#6b7280"/>
  <text x="38" y="171" fill="#6b7280" font-size="13">Logs</text>

  <!-- Analytics (active) -->
  <rect x="8" y="186" width="184" height="36" rx="6" fill="#00d4aa" opacity="0.15"/>
  <rect x="16" y="198" width="14" height="14" rx="2" fill="#00d4aa"/>
  <text x="38" y="209" fill="#00d4aa" font-size="13" font-weight="600">Analytics</text>

  <!-- System status -->
  <circle cx="20" cy="780" r="5" fill="#00d4aa"/>
  <text x="32" y="784" fill="#6b7280" font-size="11">System online</text>
  <text x="16" y="797" fill="#6b7280" font-size="10">Raspberry Pi connected</text>

  <!-- Main content -->
  <text x="228" y="44" fill="#f0f0f0" font-size="24" font-weight="700">Auswertung</text>
  <text x="228" y="62" fill="#6b7280" font-size="13">Anwesenheitsstatistiken &amp; Trends</text>

  <!-- Divider -->
  <rect x="220" y="76" width="1044" height="1" fill="#1e2028"/>

  <!-- Stat Cards -->
  <!-- Card 1: SCHÜLER GESAMT -->
  <rect x="228" y="94" width="232" height="88" rx="8" fill="#111318" stroke="#1e2028" stroke-width="1"/>
  <text x="248" y="116" fill="#6b7280" font-size="11" font-weight="600" letter-spacing="1">SCHÜLER GESAMT</text>
  <text x="248" y="154" fill="#f0f0f0" font-size="34" font-weight="700">2</text>
  <text x="248" y="172" fill="#6b7280" font-size="12">registriert</text>

  <!-- Card 2: JETZT ANWESEND -->
  <rect x="476" y="94" width="232" height="88" rx="8" fill="#111318" stroke="#1e2028" stroke-width="1"/>
  <text x="496" y="116" fill="#6b7280" font-size="11" font-weight="600" letter-spacing="1">JETZT ANWESEND</text>
  <text x="496" y="154" fill="#00d4aa" font-size="34" font-weight="700">0</text>
  <text x="496" y="172" fill="#6b7280" font-size="12">im Raum</text>

  <!-- Card 3: EINTRITTE HEUTE -->
  <rect x="724" y="94" width="232" height="88" rx="8" fill="#111318" stroke="#1e2028" stroke-width="1"/>
  <text x="744" y="116" fill="#6b7280" font-size="11" font-weight="600" letter-spacing="1">EINTRITTE HEUTE</text>
  <text x="744" y="154" fill="#f0f0f0" font-size="34" font-weight="700">0</text>
  <text x="744" y="172" fill="#6b7280" font-size="12">heute</text>

  <!-- Card 4: SCANS GESAMT -->
  <rect x="972" y="94" width="232" height="88" rx="8" fill="#111318" stroke="#1e2028" stroke-width="1"/>
  <text x="992" y="116" fill="#6b7280" font-size="11" font-weight="600" letter-spacing="1">SCANS GESAMT</text>
  <text x="992" y="154" fill="#f0f0f0" font-size="34" font-weight="700">2</text>
  <text x="992" y="172" fill="#6b7280" font-size="12">total</text>

  <!-- Charts row -->
  <!-- Chart 1: Anwesenheit (14 Tage) -->
  <rect x="228" y="202" width="500" height="230" rx="8" fill="#111318" stroke="#1e2028" stroke-width="1"/>
  <text x="248" y="228" fill="#f0f0f0" font-size="14" font-weight="600">Anwesenheit (14 Tage)</text>
  <!-- Legend -->
  <rect x="580" y="218" width="10" height="10" rx="2" fill="#00d4aa"/>
  <text x="595" y="228" fill="#6b7280" font-size="11">Eintritte</text>
  <rect x="648" y="218" width="10" height="10" rx="2" fill="#3a5f8a"/>
  <text x="663" y="228" fill="#6b7280" font-size="11">Gesamt</text>
  <!-- Chart area -->
  <rect x="248" y="244" width="460" height="160" rx="4" fill="#0f1117"/>
  <!-- Y axis labels -->
  <text x="260" y="258" fill="#3a3d4a" font-size="10">2</text>
  <text x="260" y="298" fill="#3a3d4a" font-size="10">1</text>
  <text x="260" y="338" fill="#3a3d4a" font-size="10">0</text>
  <!-- Grid lines -->
  <line x1="278" y1="255" x2="700" y2="255" stroke="#1e2028" stroke-width="1"/>
  <line x1="278" y1="295" x2="700" y2="295" stroke="#1e2028" stroke-width="1"/>
  <line x1="278" y1="335" x2="700" y2="335" stroke="#1e2028" stroke-width="1"/>
  <!-- Bar chart bars (14 days, last 2 have data) -->
  <rect x="282" y="335" width="26" height="0" fill="#00d4aa" opacity="0.7"/>
  <rect x="312" y="335" width="26" height="0" fill="#00d4aa" opacity="0.7"/>
  <rect x="342" y="335" width="26" height="0" fill="#00d4aa" opacity="0.7"/>
  <rect x="372" y="335" width="26" height="0" fill="#00d4aa" opacity="0.7"/>
  <rect x="402" y="335" width="26" height="0" fill="#00d4aa" opacity="0.7"/>
  <rect x="432" y="335" width="26" height="0" fill="#00d4aa" opacity="0.7"/>
  <rect x="462" y="335" width="26" height="0" fill="#00d4aa" opacity="0.7"/>
  <rect x="492" y="335" width="26" height="0" fill="#00d4aa" opacity="0.7"/>
  <rect x="522" y="335" width="26" height="0" fill="#00d4aa" opacity="0.7"/>
  <rect x="552" y="335" width="26" height="0" fill="#00d4aa" opacity="0.7"/>
  <rect x="582" y="335" width="26" height="0" fill="#00d4aa" opacity="0.7"/>
  <rect x="612" y="335" width="26" height="0" fill="#00d4aa" opacity="0.7"/>
  <!-- Last 2 bars with data -->
  <rect x="642" y="295" width="26" height="40" fill="#00d4aa" opacity="0.7"/>
  <rect x="672" y="295" width="26" height="40" fill="#00d4aa" opacity="0.7"/>
  <!-- X axis dates -->
  <text x="285" y="350" fill="#3a3d4a" font-size="9">12.3</text>
  <text x="375" y="350" fill="#3a3d4a" font-size="9">16.3</text>
  <text x="465" y="350" fill="#3a3d4a" font-size="9">20.3</text>
  <text x="555" y="350" fill="#3a3d4a" font-size="9">24.3</text>
  <text x="645" y="350" fill="#3a3d4a" font-size="9">26.3</text>

  <!-- Chart 2: Tageszeit-Verteilung -->
  <rect x="744" y="202" width="520" height="230" rx="8" fill="#111318" stroke="#1e2028" stroke-width="1"/>
  <text x="764" y="228" fill="#f0f0f0" font-size="14" font-weight="600">Tageszeit-Verteilung</text>
  <!-- Chart area -->
  <rect x="764" y="244" width="480" height="160" rx="4" fill="#0f1117"/>
  <!-- Y axis labels -->
  <text x="776" y="258" fill="#3a3d4a" font-size="10">2</text>
  <text x="776" y="298" fill="#3a3d4a" font-size="10">1</text>
  <text x="776" y="338" fill="#3a3d4a" font-size="10">0</text>
  <!-- Grid lines -->
  <line x1="794" y1="255" x2="1236" y2="255" stroke="#1e2028" stroke-width="1"/>
  <line x1="794" y1="295" x2="1236" y2="295" stroke="#1e2028" stroke-width="1"/>
  <line x1="794" y1="335" x2="1236" y2="335" stroke="#1e2028" stroke-width="1"/>
  <!-- Line chart for time distribution -->
  <polyline points="800,335 860,335 920,335 980,335 1040,335 1100,295 1160,295 1220,335" fill="none" stroke="#00d4aa" stroke-width="2.5" stroke-linejoin="round"/>
  <!-- Dots on the line -->
  <circle cx="1100" cy="295" r="4" fill="#00d4aa"/>
  <circle cx="1160" cy="295" r="4" fill="#00d4aa"/>
  <!-- X axis hour labels -->
  <text x="798" y="350" fill="#3a3d4a" font-size="9">08:00</text>
  <text x="858" y="350" fill="#3a3d4a" font-size="9">10:00</text>
  <text x="918" y="350" fill="#3a3d4a" font-size="9">12:00</text>
  <text x="978" y="350" fill="#3a3d4a" font-size="9">14:00</text>
  <text x="1038" y="350" fill="#3a3d4a" font-size="9">16:00</text>
  <text x="1098" y="350" fill="#3a3d4a" font-size="9">18:00</text>
  <text x="1158" y="350" fill="#3a3d4a" font-size="9">20:00</text>

  <!-- Schüler-Übersicht table -->
  <rect x="228" y="450" width="1036" height="200" rx="8" fill="#111318" stroke="#1e2028" stroke-width="1"/>
  <text x="248" y="478" fill="#f0f0f0" font-size="14" font-weight="600">Schüler-Übersicht</text>
  <rect x="228" y="490" width="1036" height="1" fill="#1e2028"/>

  <!-- Table header -->
  <rect x="228" y="491" width="1036" height="36" fill="#0f1117"/>
  <text x="248" y="514" fill="#6b7280" font-size="11" font-weight="600" letter-spacing="1">NAME</text>
  <text x="420" y="514" fill="#6b7280" font-size="11" font-weight="600" letter-spacing="1">KLASSE</text>
  <text x="560" y="514" fill="#6b7280" font-size="11" font-weight="600" letter-spacing="1">EINTRITTE GESAMT</text>
  <text x="740" y="514" fill="#6b7280" font-size="11" font-weight="600" letter-spacing="1">ZULETZT GESEHEN</text>
  <text x="930" y="514" fill="#6b7280" font-size="11" font-weight="600" letter-spacing="1">ANWESENHEITSRATE</text>
  <rect x="228" y="527" width="1036" height="1" fill="#1e2028"/>

  <!-- Row 1: Ralf Boss -->
  <rect x="228" y="528" width="1036" height="56" fill="#111318"/>
  <circle cx="258" cy="556" r="16" fill="#1a3a35"/>
  <text x="258" y="561" fill="#00d4aa" font-size="13" font-weight="700" text-anchor="middle">R</text>
  <text x="284" y="554" fill="#f0f0f0" font-size="13" font-weight="500">Ralf Boss</text>
  <text x="420" y="554" fill="#9ca3af" font-size="13">IT27B</text>
  <text x="560" y="554" fill="#9ca3af" font-size="13">0</text>
  <text x="740" y="554" fill="#9ca3af" font-size="13">19.3.2026</text>
  <!-- Progress bar -->
  <rect x="930" y="547" width="200" height="8" rx="4" fill="#1e2028"/>
  <rect x="930" y="547" width="0" height="8" rx="4" fill="#00d4aa"/>
  <rect x="228" y="584" width="1036" height="1" fill="#1e2028"/>

  <!-- Row 2: Bernd Wurm -->
  <rect x="228" y="585" width="1036" height="56" fill="#111318"/>
  <circle cx="258" cy="613" r="16" fill="#1a3a35"/>
  <text x="258" y="618" fill="#00d4aa" font-size="13" font-weight="700" text-anchor="middle">B</text>
  <text x="284" y="611" fill="#f0f0f0" font-size="13" font-weight="500">Bernd Wurm</text>
  <text x="420" y="611" fill="#9ca3af" font-size="13">IT27B</text>
  <text x="560" y="611" fill="#9ca3af" font-size="13">0</text>
  <text x="740" y="611" fill="#9ca3af" font-size="13">19.3.2026</text>
  <!-- Progress bar -->
  <rect x="930" y="604" width="200" height="8" rx="4" fill="#1e2028"/>
  <rect x="930" y="604" width="0" height="8" rx="4" fill="#00d4aa"/>
  <rect x="228" y="641" width="1036" height="1" fill="#1e2028"/>
</svg>
